PathFileType	3	(X/Y/Z)	running_2__view1_aligned.trc
DataRate	CameraRate	NumFrames	NumMarkers	Units	OrigDataRate	OrigDataStartFrame	OrigNumFrames
100.0	100.0	15	19	mm	100.0	4249	6354
Frame#	Time	pelvis			neck			head			hip_left			hip_right			knee_left			knee_right			ankle_left			ankle_right			heel_left			heel_right			toe_left			toe_right			shoulder_left			shoulder_right			elbow_left			elbow_right			wrist_left			wrist_right			
		X1	Y1	Z1	X2	Y2	Z2	X3	Y3	Z3	X4	Y4	Z4	X5	Y5	Z5	X6	Y6	Z6	X7	Y7	Z7	X8	Y8	Z8	X9	Y9	Z9	X10	Y10	Z10	X11	Y11	Z11	X12	Y12	Z12	X13	Y13	Z13	X14	Y14	Z14	X15	Y15	Z15	X16	Y16	Z16	X17	Y17	Z17	X18	Y18	Z18	X19	Y19	Z19	
4249	42.48000	94.681845	953.310658	164.450123	67.122120	1489.731157	313.098567	78.497666	1572.036448	462.260510	168.938961	956.522364	163.874896	20.424710	950.098952	165.025330	154.835166	539.647573	265.548587	-31.649880	533.518547	268.157880	162.327634	147.947349	147.849363	-88.969904	260.602965	11.389263	165.166849	103.500512	108.288768	-90.677602	249.037328	-38.583072	138.111562	78.033440	320.843570	-98.765757	114.895508	89.527596	237.582609	1479.094980	266.862195	-100.863183	1439.029844	269.407139	337.308150	1243.992940	170.692623	-183.352497	1195.893497	167.504868	233.436982	1136.270120	359.042067	-97.639464	1087.619111	364.053951
4250	42.49000	94.736975	952.589379	165.833331	66.877853	1489.242782	314.116294	77.763899	1571.860785	463.256004	169.020903	955.726681	164.906287	20.453031	949.452078	166.760358	155.705331	537.543667	258.706930	-29.688873	534.267775	275.510235	161.111601	150.878924	134.840066	-86.244781	259.098389	25.154160	163.373781	107.791054	94.913706	-88.103210	246.667298	-24.154325	137.885065	77.813363	303.464345	-94.914034	116.448754	105.462292	238.079607	1478.579569	268.631685	-101.178777	1438.655448	269.004438	340.887890	1244.364913	172.485734	-185.488763	1196.872409	164.082134	237.295770	1134.547076	360.314227	-103.750835	1084.847454	360.687824
4251	42.50000	94.792106	951.868101	167.216539	66.633586	1488.754406	315.134020	77.030132	1571.685122	464.251497	169.102845	954.930997	165.937677	20.481352	948.805204	168.495385	156.575497	535.439761	251.865273	-27.727867	535.017002	282.862589	159.895568	153.810498	121.830769	-83.519657	257.593813	38.919057	161.580713	112.081595	81.538645	-85.528818	244.297267	-9.725577	137.658569	77.593286	286.085119	-91.062311	118.002000	121.396988	238.576605	1478.064157	270.401176	-101.494370	1438.281052	268.601737	344.467630	1244.736885	174.278845	-187.625029	1197.851322	160.659401	241.154558	1132.824031	361.586386	-109.862206	1082.075797	357.321696
4252	42.51000	94.847236	951.146822	168.599746	66.389319	1488.266031	316.151746	76.296366	1571.509459	465.246991	169.184787	954.135314	166.969067	20.509673	948.158331	170.230413	157.445663	533.335854	245.023616	-25.766861	535.766230	290.214944	158.679535	156.742073	108.821472	-80.794533	256.089236	52.683955	159.787645	116.372137	68.163584	-82.954425	241.927236	4.703171	137.432072	77.373208	268.705893	-87.210588	119.555246	137.331684	239.073603	1477.548745	272.170666	-101.809963	1437.906656	268.199037	348.047370	1245.108858	176.071955	-189.761295	1198.830234	157.236667	245.013347	1131.100986	362.858546	-115.973577	1079.304140	353.955568
4253	42.52000	94.902367	950.425544	169.982954	66.145052	1487.777656	317.169473	75.562599	1571.333797	466.242484	169.266729	953.339630	168.000457	20.537994	947.511457	171.965440	158.315829	531.231948	238.181958	-23.805855	536.515457	297.567299	157.463501	159.673648	95.812175	-78.069409	254.584660	66.448852	157.994577	120.662679	54.788523	-80.380033	239.557205	19.131919	137.205576	77.153131	251.326667	-83.358864	121.108492	153.266380	239.570601	1477.033334	273.940156	-102.125557	1437.532261	267.796336	351.627110	1245.480831	177.865066	-191.897560	1199.809146	153.813934	248.872135	1129.377941	364.130706	-122.084947	1076.532483	350.589441
4254	42.53000	94.957497	949.704265	171.366162	65.900785	1487.289281	318.187199	74.828832	1571.158134	467.237978	169.348671	952.543947	169.031847	20.566315	946.864584	173.700468	159.185995	529.128042	231.340301	-21.844849	537.264685	304.919653	156.247468	162.605223	82.802878	-75.344285	253.080084	80.213749	156.201509	124.953221	41.413462	-77.805641	237.187174	33.560667	136.979080	76.933054	233.947442	-79.507141	122.661737	169.201076	240.067599	1476.517922	275.709647	-102.441150	1437.157865	267.393635	355.206850	1245.852804	179.658177	-194.033826	1200.788058	150.391200	252.730923	1127.654897	365.402865	-128.196318	1073.760826	347.223313
4255	42.54000	95.012628	948.982987	172.749370	65.656517	1486.800906	319.204926	74.095065	1570.982471	468.233471	169.430613	951.748263	170.063238	20.594636	946.217710	175.435495	160.056161	527.024136	224.498644	-19.883843	538.013912	312.272008	155.031435	165.536798	69.793581	-72.619161	251.575507	93.978646	154.408441	129.243763	28.038401	-75.231248	234.817143	47.989415	136.752583	76.712976	216.568216	-75.655418	124.214983	185.135772	240.564596	1476.002510	277.479137	-102.756743	1436.783469	266.990934	358.786590	1246.224776	181.451287	-196.170092	1201.766971	146.968467	256.589712	1125.931852	366.675025	-134.307689	1070.989169	343.857185
4256	42.55000	95.067758	948.261708	174.132577	65.412250	1486.312531	320.222652	73.361299	1570.806808	469.228965	169.512555	950.952580	171.094628	20.622957	945.570836	177.170523	160.926327	524.920230	217.656986	-17.922836	538.763140	319.624363	153.815402	168.468372	56.784284	-69.894037	250.070931	107.743544	152.615373	133.534305	14.663340	-72.656856	232.447112	62.418163	136.526087	76.492899	199.188990	-71.803695	125.768229	201.070468	241.061594	1475.487098	279.248628	-103.072337	1436.409073	266.588234	362.366330	1246.596749	183.244398	-198.306358	1202.745883	143.545733	260.448500	1124.208807	367.947185	-140.419060	1068.217512	340.491057
4257	42.56000	95.122889	947.540430	175.515785	65.167983	1485.824155	321.240378	72.627532	1570.631145	470.224459	169.594497	950.156897	172.126018	20.651278	944.923963	178.905550	161.796493	522.816324	210.815329	-15.961830	539.512367	326.976717	152.599368	171.399947	43.774987	-67.168913	248.566355	121.508441	150.822305	137.824846	1.288279	-70.082464	230.077082	76.846911	136.299590	76.272821	181.809764	-67.951971	127.321475	217.005164	241.558592	1474.971687	281.018118	-103.387930	1436.034678	266.185533	365.946070	1246.968722	185.037509	-200.442624	1203.724795	140.123000	264.307288	1122.485762	369.219344	-146.530431	1065.445855	337.124930
4258	42.57000	95.178019	946.819151	176.898993	64.923716	1485.335780	322.258105	71.893765	1570.455482	471.219952	169.676439	949.361213	173.157408	20.679599	944.277089	180.640577	162.666659	520.712418	203.973672	-14.000824	540.261595	334.329072	151.383335	174.331522	30.765690	-64.443789	247.061779	135.273338	149.029237	142.115388	-12.086782	-67.508071	227.707051	91.275659	136.073094	76.052744	164.430539	-64.100248	128.874721	232.939860	242.055590	1474.456275	282.787608	-103.703523	1435.660282	265.782832	369.525810	1247.340695	186.830619	-202.578890	1204.703707	136.700266	268.166076	1120.762717	370.491504	-152.641801	1062.674198	333.758802
4259	42.58000	95.554645	945.934648	176.430340	64.863320	1484.479788	321.723904	71.756710	1569.412567	470.764634	170.170688	948.328706	172.469373	20.938603	943.540590	180.391310	164.148139	519.715602	201.038380	-12.901787	540.238022	338.657964	151.395327	179.326643	17.799785	-61.609281	242.962645	147.012705	148.581740	148.896963	-25.989322	-64.698639	222.179163	103.718605	137.265794	75.612638	146.555236	-60.433319	128.853398	248.682551	241.856987	1474.230384	282.841721	-103.531137	1434.546699	264.357004	370.448227	1246.867551	187.696569	-202.704814	1204.349273	133.930800	268.107455	1120.326128	371.622648	-154.944448	1060.393822	331.451612
4260	42.59000	95.931270	945.050144	175.961687	64.802925	1483.623795	321.189703	71.619655	1568.369652	470.309316	170.664937	947.296198	171.781337	21.197607	942.804090	180.142042	165.629619	518.718787	198.103089	-11.802750	540.214449	342.986857	151.407318	184.321764	4.833880	-58.774772	238.863511	158.752071	148.134242	155.678537	-39.891862	-61.889208	216.651276	116.161552	138.458493	75.172531	128.679933	-56.766389	128.832075	264.425241	241.658385	1474.004493	282.895834	-103.358752	1433.433116	262.931176	371.370644	1246.394407	188.562519	-202.830737	1203.994838	131.161333	268.048833	1119.889539	372.753791	-157.247096	1058.113447	329.144422
4261	42.60000	96.307895	944.165641	175.493034	64.742529	1482.767802	320.655502	71.482599	1567.326737	469.853998	171.159186	946.263691	171.093301	21.456611	942.067591	179.892774	167.111099	517.721971	195.167798	-10.703713	540.190875	347.315750	151.419310	189.316885	-8.132024	-55.940264	234.764377	170.491437	147.686745	162.460111	-53.794402	-59.079776	211.123388	128.604498	139.651193	74.732425	110.804631	-53.099459	128.810753	280.167932	241.459782	1473.778602	282.949947	-103.186366	1432.319533	261.505348	372.293061	1245.921264	189.428468	-202.956661	1203.640403	128.391867	267.990211	1119.452950	373.884935	-159.549743	1055.833072	326.837232
4262	42.61000	96.684521	943.281137	175.024381	64.682133	1481.911809	320.121301	71.345544	1566.283822	469.398680	171.653435	945.231184	170.405265	21.715615	941.331091	179.643506	168.592578	516.725156	192.232506	-9.604676	540.167302	351.644642	151.431301	194.312006	-21.097929	-53.105755	230.665243	182.230803	147.239248	169.241686	-67.696942	-56.270344	205.595501	141.047445	140.843892	74.292319	92.929328	-49.432530	128.789430	295.910622	241.261179	1473.552711	283.004060	-103.013980	1431.205950	260.079520	373.215478	1245.448120	190.294418	-203.082584	1203.285969	125.622401	267.931589	1119.016362	375.016079	-161.852390	1053.552697	324.530042
4263	42.62000	97.061146	942.396634	174.555729	64.621738	1481.055817	319.587100	71.208489	1565.240907	468.943362	172.147684	944.198676	169.717230	21.974619	940.594592	179.394238	170.074058	515.728340	189.297215	-8.505638	540.143729	355.973535	151.443293	199.307128	-34.063834	-50.271247	226.566109	193.970169	146.791751	176.023260	-81.599482	-53.460912	200.067613	153.490391	142.036592	73.852212	75.054026	-45.765600	128.768107	311.653313	241.062577	1473.326820	283.058173	-102.841594	1430.092368	258.653692	374.137895	1244.974976	191.160368	-203.208508	1202.931534	122.852934	267.872967	1118.579773	376.147222	-164.155037	1051.272322	322.222852
